<?xml version="1.0" encoding="utf-8"?>
<!-- Generator: Adobe Illustrator 27.0.1, SVG Export Plug-In . SVG Version: 6.00 Build 0)  -->
<svg version="1.1" id="Layer_1" xmlns="http://www.w3.org/2000/svg" xmlns:xlink="http://www.w3.org/1999/xlink" x="0px" y="0px"
	 viewBox="0 0 102.9 26.2" style="enable-background:new 0 0 102.9 26.2;" xml:space="preserve">
<style type="text/css">
	.st0{fill:#FFFFFF;}
	.st1{fill-rule:evenodd;clip-rule:evenodd;fill:#FFFFFF;}
</style>
<g id="Group_26483" transform="translate(15792.213 8901.324)">
	<path id="BuzzFeed_is_the_soci" class="st0" d="M-15754.8-8896.7h-6.7v16.6h6.7c5,0,8.6-3.5,8.6-8.3
		C-15746.2-8893.3-15749.8-8896.7-15754.8-8896.7z M-15755-8884.3h-1.9v-8.2h1.9c2.1-0.1,4,1.5,4.1,3.6c0,0.2,0,0.3,0,0.5
		c0.1,2.2-1.5,4-3.7,4.1C-15754.7-8884.3-15754.9-8884.3-15755-8884.3z M-15737.6-8879.7c4.2,0,7.2-2.9,7.2-6.8s-3-6.8-7.2-6.8
		s-7.2,2.9-7.2,6.8C-15744.8-8882.6-15741.8-8879.7-15737.6-8879.7z M-15737.6-8883.7c-1.5,0-2.7-1.1-2.8-2.6c0-0.1,0-0.2,0-0.2
		c-0.1-1.5,1-2.8,2.5-2.9c0.1,0,0.2,0,0.2,0c1.5,0,2.7,1.1,2.8,2.6c0,0.1,0,0.2,0,0.2c0.1,1.5-1,2.8-2.5,2.9
		C-15737.4-8883.7-15737.5-8883.7-15737.6-8883.7L-15737.6-8883.7z M-15721.6-8884c-0.7,0.1-1.4-0.5-1.5-1.2c0-0.1,0-0.2,0-0.2v-4.1
		h3.1v-3.4h-3.2v-3.8h-0.9l-5.8,6.1v1h2.3v4.8c-0.2,2.3,1.5,4.4,3.8,4.6c0.2,0,0.5,0,0.7,0h3v-3.9H-15721.6z M-15710.5-8896.7h-7.1
		v16.6h4.6v-4.6h2.5c3.3,0.1,6-2.4,6.2-5.7c0-0.1,0-0.2,0-0.4c0.1-3.3-2.5-6-5.8-6C-15710.3-8896.8-15710.4-8896.8-15710.5-8896.7z
		 M-15711.1-8888.7h-1.9v-4h1.9c1.1-0.1,2,0.8,2,1.8c0,0.1,0,0.1,0,0.2c0.1,1.1-0.7,2-1.8,2
		C-15711-8888.7-15711-8888.7-15711.1-8888.7L-15711.1-8888.7z M-15689.4-8886.6c0-3.7-2.9-6.7-6.6-6.7c-0.1,0-0.3,0-0.4,0
		c-3.7-0.2-6.8,2.7-7,6.4c0,0.1,0,0.3,0,0.4c-0.1,3.7,2.9,6.8,6.6,6.8c0.1,0,0.2,0,0.4,0c3.1,0.1,5.8-1.8,6.7-4.8h-4.4
		c-0.5,0.8-1.4,1.2-2.3,1.2c-1.3,0.1-2.5-0.9-2.6-2.2h9.5C-15689.4-8885.9-15689.4-8886.3-15689.4-8886.6L-15689.4-8886.6z
		 M-15696.4-8889.9c1.2-0.1,2.4,0.8,2.6,2h-5.2C-15698.7-8889.1-15697.6-8890-15696.4-8889.9L-15696.4-8889.9z"/>
	<path id="Path_43496" class="st1" d="M-15770.5-8901.3c2.4,0,4.4,2,4.3,4.4v17.5c0,2.4-1.9,4.4-4.3,4.4h-17.4c-2.4,0-4.4-2-4.3-4.4
		c0,0,0,0,0,0v-17.5c0-2.4,1.9-4.4,4.3-4.4c0,0,0,0,0,0H-15770.5z M-15784.6-8892.6c-1.4,0-2.6,1.1-2.6,2.5c0,1.4,1.1,2.6,2.5,2.6
		s2.6-1.1,2.6-2.5c0,0,0,0,0,0C-15782.1-8891.4-15783.2-8892.6-15784.6-8892.6z M-15773.8-8892.6c-1.4,0-2.6,1.1-2.6,2.5
		s1.1,2.6,2.5,2.6s2.6-1.1,2.6-2.5c0,0,0,0,0,0C-15771.2-8891.4-15772.3-8892.6-15773.8-8892.6L-15773.8-8892.6z"/>
</g>
</svg>
